<mxfile host="drawio-plugin" modified="2025-10-04T21:24:46.681Z" agent="Mozilla/5.0 (X11; Linux x86_64) AppleWebKit/537.36 (KHTML, like Gecko) Chrome/122.0.0.0 Safari/537.36" etag="QjzfwQSEZp_YaPGrUpMx" version="22.1.22" type="embed">
  <diagram id="pXi5_D2-40zMS9Ey3wNd" name="Page-1">
    <mxGraphModel dx="644" dy="381" grid="1" gridSize="10" guides="1" tooltips="1" connect="1" arrows="1" fold="1" page="1" pageScale="1" pageWidth="1100" pageHeight="850" math="0" shadow="0">
      <root>
        <mxCell id="0" />
        <mxCell id="1" parent="0" />
        <mxCell id="35" value="Logout" style="edgeStyle=orthogonalEdgeStyle;rounded=0;orthogonalLoop=1;jettySize=auto;html=1;curved=1;exitX=0.25;exitY=0;exitDx=0;exitDy=0;" parent="1" source="2" target="15" edge="1">
          <mxGeometry relative="1" as="geometry" />
        </mxCell>
        <mxCell id="2" value="Authenticated" style="swimlane;fontStyle=1;align=center;verticalAlign=top;childLayout=stackLayout;horizontal=1;startSize=30;horizontalStack=0;resizeParent=1;resizeParentMax=0;resizeLast=0;collapsible=0;marginBottom=0;html=1;rounded=1;absoluteArcSize=1;arcSize=52;whiteSpace=wrap;fixedWidth=0;" parent="1" vertex="1">
          <mxGeometry x="90" y="320" width="870" height="480" as="geometry" />
        </mxCell>
        <mxCell id="3" value="" style="fillColor=none;strokeColor=none;container=1;collapsible=0;recursiveResize=0;" parent="2" vertex="1">
          <mxGeometry y="30" width="870" height="450" as="geometry" />
        </mxCell>
        <mxCell id="37" value="Select Replic" style="edgeStyle=orthogonalEdgeStyle;rounded=0;orthogonalLoop=1;jettySize=auto;html=1;curved=1;" parent="3" source="5" target="36" edge="1">
          <mxGeometry relative="1" as="geometry">
            <Array as="points">
              <mxPoint x="490" y="375" />
              <mxPoint x="490" y="185" />
            </Array>
          </mxGeometry>
        </mxCell>
        <mxCell id="39" value="Select Replic" style="edgeStyle=orthogonalEdgeStyle;rounded=0;orthogonalLoop=1;jettySize=auto;html=1;curved=1;spacingBottom=60;spacingRight=80;" parent="3" source="5" target="38" edge="1">
          <mxGeometry relative="1" as="geometry">
            <Array as="points">
              <mxPoint x="420" y="280" />
              <mxPoint x="420" y="280" />
            </Array>
          </mxGeometry>
        </mxCell>
        <mxCell id="5" value="All Replics" style="html=1;align=center;verticalAlign=middle;rounded=1;absoluteArcSize=1;arcSize=10;whiteSpace=wrap;fontStyle=1" parent="3" vertex="1">
          <mxGeometry x="360" y="360" width="110" height="30" as="geometry" />
        </mxCell>
        <mxCell id="40" value="Select Replic&lt;br&gt;of report" style="edgeStyle=orthogonalEdgeStyle;rounded=0;orthogonalLoop=1;jettySize=auto;html=1;curved=1;" parent="3" source="24" target="36" edge="1">
          <mxGeometry relative="1" as="geometry" />
        </mxCell>
        <mxCell id="24" value="All Reports" style="html=1;align=center;verticalAlign=middle;rounded=1;absoluteArcSize=1;arcSize=10;whiteSpace=wrap;fontStyle=1" parent="3" vertex="1">
          <mxGeometry x="570" y="360" width="110" height="30" as="geometry" />
        </mxCell>
        <mxCell id="25" value="All Users" style="html=1;align=center;verticalAlign=middle;rounded=1;absoluteArcSize=1;arcSize=10;whiteSpace=wrap;fontStyle=1" parent="3" vertex="1">
          <mxGeometry x="730" y="50" width="110" height="30" as="geometry" />
        </mxCell>
        <mxCell id="26" value="Server Config" style="html=1;align=center;verticalAlign=middle;rounded=1;absoluteArcSize=1;arcSize=10;whiteSpace=wrap;fontStyle=1" parent="3" vertex="1">
          <mxGeometry x="730" y="170" width="110" height="30" as="geometry" />
        </mxCell>
        <mxCell id="27" style="edgeStyle=orthogonalEdgeStyle;rounded=0;orthogonalLoop=1;jettySize=auto;html=1;exitX=0.5;exitY=1;exitDx=0;exitDy=0;curved=1;" parent="3" source="3" target="5" edge="1">
          <mxGeometry relative="1" as="geometry">
            <mxPoint x="211.67999999999984" y="449.54999999999995" as="sourcePoint" />
            <Array as="points">
              <mxPoint x="435" y="470" />
              <mxPoint x="400" y="470" />
            </Array>
          </mxGeometry>
        </mxCell>
        <mxCell id="28" style="edgeStyle=orthogonalEdgeStyle;rounded=0;orthogonalLoop=1;jettySize=auto;html=1;exitX=0.75;exitY=1;exitDx=0;exitDy=0;curved=1;" parent="3" source="3" target="24" edge="1">
          <mxGeometry relative="1" as="geometry">
            <mxPoint x="274.0799999999999" y="449.54999999999995" as="sourcePoint" />
            <Array as="points">
              <mxPoint x="653" y="470" />
              <mxPoint x="610" y="470" />
            </Array>
          </mxGeometry>
        </mxCell>
        <mxCell id="29" style="edgeStyle=orthogonalEdgeStyle;rounded=0;orthogonalLoop=1;jettySize=auto;html=1;curved=1;exitX=1;exitY=0.25;exitDx=0;exitDy=0;" parent="3" source="3" target="25" edge="1">
          <mxGeometry relative="1" as="geometry">
            <mxPoint x="633.1199999999999" y="450" as="sourcePoint" />
            <Array as="points">
              <mxPoint x="920" y="113" />
              <mxPoint x="920" y="65" />
            </Array>
          </mxGeometry>
        </mxCell>
        <mxCell id="30" style="edgeStyle=orthogonalEdgeStyle;rounded=0;orthogonalLoop=1;jettySize=auto;html=1;exitX=1;exitY=0.31;exitDx=0;exitDy=0;curved=1;exitPerimeter=0;" parent="3" source="3" target="26" edge="1">
          <mxGeometry relative="1" as="geometry">
            <mxPoint x="668.6399999999999" y="450" as="sourcePoint" />
            <Array as="points">
              <mxPoint x="910" y="139" />
              <mxPoint x="910" y="185" />
            </Array>
          </mxGeometry>
        </mxCell>
        <mxCell id="32" style="edgeStyle=orthogonalEdgeStyle;rounded=0;orthogonalLoop=1;jettySize=auto;html=1;" parent="3" source="31" target="5" edge="1">
          <mxGeometry relative="1" as="geometry">
            <mxPoint x="320" y="375" as="sourcePoint" />
          </mxGeometry>
        </mxCell>
        <mxCell id="43" value="[Email verification&lt;br&gt;link]" style="edgeStyle=orthogonalEdgeStyle;rounded=0;orthogonalLoop=1;jettySize=auto;html=1;spacingBottom=32;" parent="3" source="31" target="42" edge="1">
          <mxGeometry relative="1" as="geometry" />
        </mxCell>
        <mxCell id="44" value="[Replic link]" style="edgeStyle=orthogonalEdgeStyle;rounded=0;orthogonalLoop=1;jettySize=auto;html=1;curved=1;" parent="3" source="31" target="36" edge="1">
          <mxGeometry relative="1" as="geometry">
            <Array as="points">
              <mxPoint x="280" y="300" />
              <mxPoint x="590" y="300" />
            </Array>
          </mxGeometry>
        </mxCell>
        <mxCell id="31" value="" style="ellipse;fillColor=strokeColor;html=1;" parent="3" vertex="1">
          <mxGeometry x="270" y="365" width="20" height="20" as="geometry" />
        </mxCell>
        <mxCell id="33" value="Account" style="html=1;align=center;verticalAlign=middle;rounded=1;absoluteArcSize=1;arcSize=10;whiteSpace=wrap;fontStyle=1" parent="3" vertex="1">
          <mxGeometry x="70" y="45" width="100" height="30" as="geometry" />
        </mxCell>
        <mxCell id="34" value="Click account icon" style="edgeStyle=orthogonalEdgeStyle;rounded=0;orthogonalLoop=1;jettySize=auto;html=1;exitX=0;exitY=0.25;exitDx=0;exitDy=0;curved=1;spacingBottom=13;" parent="3" source="3" target="33" edge="1">
          <mxGeometry relative="1" as="geometry">
            <Array as="points">
              <mxPoint x="-20" y="112" />
              <mxPoint x="-20" y="60" />
            </Array>
          </mxGeometry>
        </mxCell>
        <mxCell id="36" value="Replic Info" style="html=1;align=center;verticalAlign=middle;rounded=1;absoluteArcSize=1;arcSize=10;whiteSpace=wrap;fontStyle=1" parent="3" vertex="1">
          <mxGeometry x="560" y="170" width="110" height="30" as="geometry" />
        </mxCell>
        <mxCell id="41" value="View content&lt;br&gt;[Correct password] &amp;amp;&lt;br&gt;[Access to Replic]" style="edgeStyle=orthogonalEdgeStyle;rounded=0;orthogonalLoop=1;jettySize=auto;html=1;curved=1;" parent="3" source="38" target="36" edge="1">
          <mxGeometry relative="1" as="geometry">
            <Array as="points">
              <mxPoint x="415" y="140" />
              <mxPoint x="615" y="140" />
            </Array>
          </mxGeometry>
        </mxCell>
        <mxCell id="46" value="View content&lt;br&gt;[Verification required] &amp;amp;&lt;br&gt;[User not verified]" style="edgeStyle=orthogonalEdgeStyle;rounded=0;orthogonalLoop=1;jettySize=auto;html=1;curved=1;spacingRight=202;" parent="3" source="38" target="45" edge="1">
          <mxGeometry relative="1" as="geometry" />
        </mxCell>
        <mxCell id="38" value="Replic Content" style="html=1;align=center;verticalAlign=middle;rounded=1;absoluteArcSize=1;arcSize=10;whiteSpace=wrap;fontStyle=1" parent="3" vertex="1">
          <mxGeometry x="360" y="170" width="110" height="30" as="geometry" />
        </mxCell>
        <mxCell id="42" value="Email Verification" style="html=1;align=center;verticalAlign=middle;rounded=1;absoluteArcSize=1;arcSize=10;whiteSpace=wrap;fontStyle=1" parent="3" vertex="1">
          <mxGeometry x="30" y="360" width="120" height="30" as="geometry" />
        </mxCell>
        <mxCell id="45" value="Email not verified" style="html=1;align=center;verticalAlign=middle;rounded=1;absoluteArcSize=1;arcSize=10;whiteSpace=wrap;fontStyle=1" parent="3" vertex="1">
          <mxGeometry x="270" y="70" width="110" height="30" as="geometry" />
        </mxCell>
        <mxCell id="23" value="Authenticated" style="edgeStyle=orthogonalEdgeStyle;rounded=0;orthogonalLoop=1;jettySize=auto;html=1;curved=1;exitX=1;exitY=0.5;exitDx=0;exitDy=0;spacingTop=49;spacingRight=14;" parent="1" source="16" target="2" edge="1">
          <mxGeometry relative="1" as="geometry" />
        </mxCell>
        <mxCell id="15" value="Authentication" style="swimlane;fontStyle=1;align=center;verticalAlign=top;childLayout=stackLayout;horizontal=1;startSize=30;horizontalStack=0;resizeParent=1;resizeParentMax=0;resizeLast=0;collapsible=0;marginBottom=0;html=1;rounded=1;absoluteArcSize=1;arcSize=52;whiteSpace=wrap;fixedWidth=0;" parent="1" vertex="1">
          <mxGeometry x="40" y="20" width="350" height="190" as="geometry" />
        </mxCell>
        <mxCell id="16" value="" style="fillColor=none;strokeColor=none;container=1;collapsible=0;recursiveResize=0;" parent="15" vertex="1">
          <mxGeometry y="30" width="350" height="160" as="geometry" />
        </mxCell>
        <mxCell id="17" value="Login instead" style="edgeStyle=orthogonalEdgeStyle;rounded=0;orthogonalLoop=1;jettySize=auto;html=1;curved=1;" parent="16" source="18" target="20" edge="1">
          <mxGeometry relative="1" as="geometry">
            <mxPoint x="85" y="120" as="sourcePoint" />
            <Array as="points">
              <mxPoint x="265" y="110" />
              <mxPoint x="85" y="110" />
            </Array>
          </mxGeometry>
        </mxCell>
        <mxCell id="18" value="Signup" style="html=1;align=center;verticalAlign=middle;rounded=1;absoluteArcSize=1;arcSize=10;whiteSpace=wrap;fontStyle=1" parent="16" vertex="1">
          <mxGeometry x="200" y="54.97" width="130" height="30" as="geometry" />
        </mxCell>
        <mxCell id="19" value="Signup instead" style="edgeStyle=orthogonalEdgeStyle;rounded=0;orthogonalLoop=1;jettySize=auto;html=1;curved=1;" parent="16" source="20" target="18" edge="1">
          <mxGeometry relative="1" as="geometry">
            <Array as="points">
              <mxPoint x="85" y="20" />
              <mxPoint x="265" y="20" />
            </Array>
          </mxGeometry>
        </mxCell>
        <mxCell id="20" value="Login" style="html=1;align=center;verticalAlign=middle;rounded=1;absoluteArcSize=1;arcSize=10;whiteSpace=wrap;fontStyle=1" parent="16" vertex="1">
          <mxGeometry x="50" y="54.97" width="80" height="30" as="geometry" />
        </mxCell>
        <mxCell id="21" style="edgeStyle=orthogonalEdgeStyle;rounded=0;orthogonalLoop=1;jettySize=auto;html=1;curved=1;" parent="16" source="22" target="20" edge="1">
          <mxGeometry relative="1" as="geometry">
            <Array as="points">
              <mxPoint x="20" y="70" />
            </Array>
          </mxGeometry>
        </mxCell>
        <mxCell id="22" value="" style="ellipse;fillColor=strokeColor;html=1;" parent="16" vertex="1">
          <mxGeometry x="10" y="100" width="20" height="20" as="geometry" />
        </mxCell>
      </root>
    </mxGraphModel>
  </diagram>
</mxfile>
